<?xml version="1.0" standalone="no"?>
<!DOCTYPE svg PUBLIC "-//W3C//DTD SVG 20010904//EN"
 "http://www.w3.org/TR/2001/REC-SVG-20010904/DTD/svg10.dtd">
<svg version="1.0" xmlns="http://www.w3.org/2000/svg"
 width="288.000000pt" height="288.000000pt" viewBox="0 0 288.000000 288.000000"
 preserveAspectRatio="xMidYMid meet">
<metadata>
Created by potrace 1.14, written by Peter Selinger 2001-2017
</metadata>
<g transform="translate(0.000000,288.000000) scale(0.100000,-0.100000)"
fill="#000000" stroke="none">
<path d="M0 1440 l0 -1440 1440 0 1440 0 0 1440 0 1440 -1440 0 -1440 0 0
-1440z m2855 755 l0 -660 -1415 0 -1415 0 -3 650 c-1 358 0 656 3 662 3 10
299 12 1417 10 l1413 -2 0 -660z m-2 -919 c4 -26 6 -318 5 -649 l-3 -602
-1415 0 -1415 0 0 635 c0 349 3 642 6 650 6 13 171 15 1410 13 l1404 -1 8 -46z"/>
<path d="M1135 2398 c-3 -13 -6 -130 -8 -261 -2 -177 0 -243 9 -255 10 -14 15
-15 26 -4 10 10 13 67 12 250 0 130 -3 249 -7 265 -9 33 -25 35 -32 5z"/>
<path d="M1997 2312 c-58 -2 -68 -6 -65 -20 3 -15 21 -17 168 -18 236 -2 234
-2 138 -36 -109 -38 -188 -113 -188 -179 0 -75 85 -159 161 -159 52 0 48 24
-5 28 -40 3 -65 23 -96 75 -25 40 -25 74 -2 109 17 25 64 68 75 68 19 0 177
83 177 93 -1 38 -16 42 -157 42 -76 1 -169 -1 -206 -3z"/>
<path d="M464 2237 c-26 -15 -3 -28 45 -27 116 4 151 0 151 -16 0 -18 -6 -25
-123 -172 -108 -136 -103 -130 -91 -142 7 -7 27 -7 65 0 37 7 79 7 124 1 38
-6 72 -8 77 -5 4 3 8 16 8 30 0 24 -1 24 -91 24 -52 0 -89 4 -87 9 2 6 20 29
41 53 59 66 147 190 154 217 3 14 1 27 -8 32 -17 11 -244 8 -265 -4z"/>
<path d="M873 2231 c-24 -11 -55 -37 -72 -62 -27 -37 -31 -50 -31 -111 0 -78
27 -134 70 -145 48 -13 118 -8 138 10 25 23 49 21 62 -3 6 -11 17 -20 25 -20
20 0 19 44 -1 61 -14 12 -16 31 -11 137 6 140 10 133 -88 146 -38 5 -60 2 -92
-13z m139 -44 c4 -6 2 -19 -3 -28 -5 -10 -9 -53 -9 -96 0 -77 -1 -78 -33 -101
-26 -17 -41 -21 -68 -16 -51 10 -66 21 -72 51 -3 16 -9 40 -12 55 -18 71 67
157 147 150 24 -3 46 -9 50 -15z"/>
<path d="M1351 2234 c-76 -24 -112 -72 -112 -152 -1 -88 37 -139 106 -142 63
-3 72 -1 90 17 13 13 19 13 25 4 9 -15 -4 -79 -19 -94 -16 -16 -82 -23 -136
-15 -56 8 -78 -3 -54 -27 21 -21 167 -25 203 -6 15 8 38 37 51 64 23 45 25 60
25 188 l0 140 -32 13 c-53 22 -100 25 -147 10z m107 -40 c19 -13 22 -24 22
-77 0 -73 -15 -101 -67 -122 -68 -28 -95 -16 -123 53 -10 25 -10 36 -1 45 6 6
11 21 11 33 0 34 32 66 76 74 58 11 58 11 82 -6z"/>
<path d="M1683 2235 c-61 -28 -121 -142 -110 -211 8 -48 46 -124 62 -124 7 0
18 -7 25 -15 16 -20 81 -19 122 1 108 52 127 266 31 338 -32 24 -90 29 -130
11z m121 -64 c37 -41 22 -174 -25 -217 -28 -25 -105 -24 -124 3 -38 50 -25
176 23 213 33 27 103 27 126 1z"/>
<path d="M2299 2176 c-2 -3 -2 -33 1 -68 4 -47 9 -63 20 -63 12 0 16 15 18 68
3 60 1 67 -16 67 -10 0 -21 -2 -23 -4z"/>
<path d="M2389 2173 c-1 -5 -1 -33 1 -63 4 -102 40 -90 40 13 0 50 -2 57 -20
57 -11 0 -21 -3 -21 -7z"/>
<path d="M2195 1078 c-12 -34 -11 -127 1 -132 22 -8 35 20 33 71 -3 56 -7 73
-20 73 -5 0 -12 -6 -14 -12z"/>
<path d="M2287 1083 c-4 -3 -7 -35 -7 -70 0 -56 2 -64 17 -61 15 3 18 14 18
61 0 54 -13 86 -28 70z"/>
<path d="M700 1020 c0 -46 4 -62 16 -67 24 -9 31 7 26 70 -3 48 -7 57 -23 57
-17 0 -19 -8 -19 -60z"/>
<path d="M790 1021 c0 -37 5 -63 13 -70 21 -17 27 -3 27 66 0 56 -2 63 -20 63
-18 0 -20 -7 -20 -59z"/>
<path d="M1108 1013 l-3 -68 -103 -3 c-91 -2 -103 -5 -100 -20 3 -15 18 -17
109 -20 l105 -3 27 -69 c35 -90 35 -108 0 -112 -45 -5 -34 -30 14 -34 39 -4
43 -2 49 22 4 15 -2 56 -15 99 -11 40 -21 78 -21 84 0 6 38 11 98 13 l97 3 3
88 c3 81 1 88 -15 85 -14 -3 -19 -16 -23 -68 l-5 -65 -82 0 c-45 0 -84 3 -87
6 -3 3 -9 33 -12 67 -5 41 -11 62 -20 62 -9 0 -14 -20 -16 -67z"/>
<path d="M1424 1069 c-11 -19 -4 -133 9 -141 21 -13 28 8 25 77 -3 66 -17 92
-34 64z"/>
<path d="M1535 1048 c-13 -8 -14 -12 -4 -25 9 -10 29 -14 68 -12 97 5 143 0
139 -13 -3 -7 -36 -34 -74 -61 -98 -67 -156 -117 -151 -130 3 -9 35 -11 109
-8 123 4 159 -9 182 -63 11 -27 12 -44 4 -75 -11 -42 -38 -57 -38 -22 0 11
-15 28 -36 40 -42 25 -71 22 -146 -12 -51 -24 -58 -40 -38 -93 17 -43 39 -53
110 -53 54 0 71 4 104 27 63 43 78 71 80 143 2 110 -35 140 -178 143 -54 1
-70 17 -33 33 41 19 187 135 187 149 0 32 -43 43 -157 42 -61 -1 -119 -5 -128
-10z m176 -409 c38 -27 37 -54 -3 -79 -43 -26 -76 -25 -105 2 -32 30 -29 52
10 77 41 26 62 26 98 0z"/>
<path d="M560 943 c-114 -3 -154 -12 -137 -29 3 -4 52 -8 109 -11 57 -2 108
-5 115 -8 6 -2 11 -20 11 -40 0 -41 5 -50 25 -42 11 4 15 24 16 71 0 36 -3 65
-7 64 -4 -1 -63 -4 -132 -5z"/>
<path d="M1902 923 c3 -16 18 -18 120 -21 l117 -3 3 -42 c2 -29 8 -42 18 -42
11 0 16 15 20 52 3 28 4 56 2 62 -2 7 -54 11 -144 11 -127 0 -139 -2 -136 -17z"/>
<path d="M967 774 c-11 -11 -8 -55 6 -96 15 -43 114 -161 128 -152 9 5 -35 77
-72 119 -10 11 -23 43 -30 70 -14 55 -22 69 -32 59z"/>
<path d="M1917 693 c-4 -3 -7 -21 -7 -39 0 -31 2 -33 43 -39 23 -3 85 -5 137
-3 76 2 95 6 95 18 0 12 -22 16 -120 20 -115 5 -120 6 -123 28 -3 22 -13 28
-25 15z"/>
<path d="M432 674 c-14 -24 -3 -53 22 -60 11 -2 75 -3 141 -2 99 2 120 6 120
18 0 12 -21 15 -120 18 -106 2 -122 5 -137 23 -15 18 -17 18 -26 3z"/>
</g>
</svg>
